<svg xmlns="http://www.w3.org/2000/svg" xmlns:xlink="http://www.w3.org/1999/xlink" viewBox="0,0,256,256" width="50px" height="50px" fill-rule="nonzero"><g fill="#ffffff" fill-rule="nonzero" stroke="none" stroke-width="1" stroke-linecap="butt" stroke-linejoin="miter" stroke-miterlimit="10" stroke-dasharray="" stroke-dashoffset="0" font-family="none" font-weight="none" font-size="none" text-anchor="none" style="mix-blend-mode: normal"><g transform="scale(5.12,5.12)"><path d="M37,4h-24c-4.963,0 -9,4.037 -9,9v24c0,4.963 4.037,9 9,9h24c4.963,0 9,-4.037 9,-9v-24c0,-4.963 -4.037,-9 -9,-9zM14,15h18c0.553,0 1,0.447 1,1c0,0.553 -0.447,1 -1,1h-18c-0.553,0 -1,-0.447 -1,-1c0,-0.553 0.447,-1 1,-1zM44,17.171c-1.796,2.942 -10.193,16.435 -13.717,17.497l-0.883,1.767c-0.175,0.351 -0.528,0.553 -0.896,0.553c-0.15,0 -0.303,-0.034 -0.446,-0.105c-0.174,-0.087 -0.296,-0.227 -0.391,-0.382c-0.906,0.334 -1.853,0.483 -2.647,0.487c-1.603,-0.004 -2.621,-0.697 -3.404,-1.265c-0.637,-0.462 -1.026,-0.723 -1.616,-0.723c-0.562,0 -0.978,0.239 -1.663,0.661c-0.968,0.597 -2.172,1.339 -4.337,1.339c-0.553,0 -1,-0.447 -1,-1c0,-0.553 0.447,-1 1,-1c1.598,0 2.419,-0.506 3.288,-1.041c0.765,-0.472 1.556,-0.959 2.712,-0.959c1.267,0 2.075,0.586 2.789,1.104c0.682,0.493 1.22,0.884 2.201,0.884c0.007,0 0.013,0 0.02,0c1.253,-0.006 2.914,-0.486 3.635,-1.518l0.1,-0.2c-0.134,-1.062 0.159,-2.55 0.73,-4.27h-15.475c-0.553,0 -1,-0.447 -1,-1c0,-0.553 0.447,-1 1,-1h16.213c0.518,-1.287 1.136,-2.643 1.799,-4h-18.012c-0.553,0 -1,-0.447 -1,-1c0,-0.553 0.447,-1 1,-1h19.018c1.724,-3.332 3.554,-6.448 4.637,-8.266c1.922,1.762 4.808,3.214 6.345,3.746zM44,14.596c-1.874,-0.778 -4.654,-2.589 -5.664,-3.501v-1.414l1.798,-2.931c2.289,1.153 3.866,3.518 3.866,6.25z"></path></g></g></svg>